<svg xmlns="http://www.w3.org/2000/svg" viewBox="0 0 512 512" width="512" height="512">
  <!-- Background -->
  <rect width="512" height="512" rx="80" ry="80" fill="#f0f0f0" />

  <!-- Clipboard -->
  <rect x="96" y="96" width="320" height="400" rx="24" ry="24" fill="#ffffff" stroke="#d0d0d0" stroke-width="16" />
  <rect x="176" y="64" width="160" height="48" rx="8" ry="8" fill="#e0e0e0" />

  <!-- Checklist -->
  <line x1="136" y1="160" x2="376" y2="160" stroke="#4a90e2" stroke-width="16" stroke-linecap="round" />
  <circle cx="136" cy="224" r="12" fill="#4a90e2" />
  <line x1="176" y1="224" x2="376" y2="224" stroke="#4a90e2" stroke-width="16" stroke-linecap="round" />
  <circle cx="136" cy="288" r="12" fill="#4a90e2" />
  <line x1="176" y1="288" x2="376" y2="288" stroke="#4a90e2" stroke-width="16" stroke-linecap="round" />

  <!-- Barcode Scanner -->
  <rect x="200" y="360" width="112" height="24" rx="4" ry="4" fill="#4a90e2" />
  <line x1="224" y1="360" x2="224" y2="384" stroke="#ffffff" stroke-width="4" />
  <line x1="248" y1="360" x2="248" y2="384" stroke="#ffffff" stroke-width="4" />
  <line x1="272" y1="360" x2="272" y2="384" stroke="#ffffff" stroke-width="4" />
  <line x1="296" y1="360" x2="296" y2="384" stroke="#ffffff" stroke-width="4" />

  <!-- Gear Symbol -->
  <g transform="translate(380, 120) scale(0.6)">
    <circle cx="64" cy="64" r="32" fill="#4a90e2" />
    <path d="M64 0l8 24h16l8-24H64zM64 128l8-24h16l8 24H64zM0 64l24-8v-16L0 64zM128 64l-24-8v-16l24 8zM18 18l17 17h17L18 18zM110 18L93 35h-17L110 18zM18 110l17-17v-17L18 110zM110 110l-17-17v-17l17 17z" fill="#ffffff" />
  </g>
</svg>
