<?xml version="1.0" standalone="no"?>
<!DOCTYPE svg PUBLIC "-//W3C//DTD SVG 20010904//EN"
 "http://www.w3.org/TR/2001/REC-SVG-20010904/DTD/svg10.dtd">
<svg version="1.0" xmlns="http://www.w3.org/2000/svg"
 width="1024.000000pt" height="1024.000000pt" viewBox="0 0 1024.000000 1024.000000"
 preserveAspectRatio="xMidYMid meet">

<g transform="translate(0.000000,1024.000000) scale(0.100000,-0.100000)"
fill="#000000" stroke="none">
<path d="M3565 8713 c-88 -7 -188 -19 -222 -27 -39 -8 -66 -9 -72 -3 -24 24
-292 -68 -460 -158 -162 -87 -255 -157 -407 -309 -160 -161 -231 -259 -329
-461 -76 -156 -114 -261 -150 -421 -34 -147 -43 -364 -46 -1039 -2 -253 -5
-433 -8 -400 l-6 60 -8 -50 c-4 -27 -10 -80 -13 -117 -6 -64 -5 -68 15 -68 20
0 21 -5 21 -101 0 -88 -2 -100 -16 -95 -9 3 -18 6 -20 6 -2 0 -4 7 -4 15 0 8
-9 15 -20 15 -15 0 -20 -7 -20 -24 0 -14 5 -28 11 -32 8 -5 8 -9 -1 -14 -7 -4
-12 -32 -12 -66 0 -32 -5 -62 -10 -65 -5 -3 -4 -17 3 -32 9 -19 9 -33 2 -50
-7 -15 -7 -39 0 -75 8 -39 8 -61 -1 -84 -7 -20 -8 -37 -2 -49 11 -20 13 -102
3 -113 -9 -8 -13 -31 -16 -78 -1 -20 -4 -32 -8 -27 -3 6 -9 0 -12 -13 -4 -12
-3 -24 1 -26 5 -1 7 -16 4 -32 -6 -39 5 -80 21 -80 9 0 12 -36 11 -143 0 -78
3 -150 8 -159 5 -10 4 -19 -2 -23 -6 -4 -8 -10 -5 -15 8 -13 15 -491 7 -486
-4 2 -6 -13 -4 -35 4 -38 5 -39 43 -39 l39 0 0 -100 c0 -82 -3 -100 -15 -100
-10 0 -15 -10 -15 -30 0 -20 5 -30 15 -30 12 0 15 -14 13 -72 l-1 -73 -7 60
c-7 60 -7 60 -8 13 -1 -27 -6 -48 -11 -48 -13 0 -1 -119 16 -160 14 -31 16
-33 23 -15 7 17 9 16 10 -10 1 -16 3 -37 6 -45 15 -58 15 -65 -5 -78 -13 -7
-21 -8 -21 -2 0 5 -4 10 -10 10 -5 0 -10 -15 -10 -32 0 -25 3 -29 10 -18 5 8
10 10 10 4 0 -6 -6 -17 -14 -23 -9 -8 -14 -34 -15 -74 0 -34 -5 -63 -11 -65
-13 -5 -13 -32 -1 -32 5 0 13 9 16 21 4 11 9 18 12 16 2 -3 -5 -24 -17 -47
-20 -40 -21 -44 -5 -59 15 -15 16 -14 11 14 -5 26 -4 25 6 -5 15 -45 17 -47
28 -30 8 12 10 10 10 -7 0 -15 -6 -23 -17 -24 -11 0 -13 -3 -5 -6 6 -2 12 -11
12 -19 0 -8 5 -14 10 -14 6 0 10 6 10 14 0 8 5 18 12 22 7 4 8 3 4 -4 -4 -7 0
-22 8 -34 9 -12 16 -39 16 -59 0 -41 22 -103 33 -92 4 3 7 4 7 0 0 -3 -10 -15
-22 -27 -12 -11 -17 -20 -10 -20 6 0 14 5 17 10 13 21 27 10 21 -16 -4 -16 -2
-32 6 -41 11 -14 10 -15 -12 -9 -19 6 -22 5 -10 -3 12 -9 13 -13 2 -20 -10 -6
-7 -10 13 -15 20 -5 25 -11 20 -26 -4 -12 -2 -20 4 -20 6 0 11 9 11 19 0 11 4
22 9 25 5 3 6 -15 3 -41 -3 -33 -2 -44 6 -39 8 4 10 2 6 -7 -3 -10 6 -20 25
-28 17 -8 31 -20 31 -27 0 -30 64 -142 79 -139 10 1 19 -10 26 -30 5 -18 15
-33 22 -33 7 0 13 -9 13 -19 0 -11 5 -23 10 -26 6 -4 10 6 10 22 0 20 3 24 9
14 5 -8 7 -20 4 -28 -3 -8 3 -13 17 -13 16 0 20 -4 16 -15 -3 -9 -2 -23 3 -33
5 -9 13 -27 17 -39 7 -17 13 -20 24 -13 13 8 12 10 -2 10 -10 0 -18 4 -18 10
0 6 10 5 25 -2 14 -6 25 -15 25 -20 0 -4 4 -8 9 -8 6 0 22 -11 36 -24 14 -13
42 -32 61 -41 19 -9 32 -20 29 -25 -3 -4 13 -6 35 -3 30 4 45 1 59 -11 11 -10
34 -20 53 -22 110 -15 118 -17 118 -30 0 -20 41 -34 64 -22 16 9 18 7 14 -9
-4 -16 0 -18 29 -15 21 3 33 0 33 -8 0 -7 6 -10 14 -7 16 6 66 -13 66 -25 0
-8 -16 -12 -33 -9 -5 1 -6 -3 -2 -9 4 -7 12 -7 25 0 13 7 21 7 25 0 4 -6 10
-8 14 -5 16 9 81 13 81 5 0 -5 -8 -10 -17 -12 -13 -2 -11 -6 9 -15 23 -10 25
-10 21 8 -5 17 -2 18 20 10 21 -8 27 -7 30 7 4 13 5 13 6 -4 0 -11 -5 -26 -11
-34 -7 -7 2 -3 20 10 l33 22 22 -20 c15 -14 27 -18 37 -12 8 5 21 5 30 0 11
-6 21 -5 27 1 8 8 17 7 32 0 15 -8 27 -9 40 -1 25 13 41 13 21 0 -13 -8 -13
-10 2 -10 9 0 19 -6 21 -12 3 -8 6 -7 6 4 2 34 71 33 71 -1 1 -14 2 -14 13 -1
7 8 27 21 46 27 29 10 36 10 45 -2 10 -13 14 -13 39 0 15 8 25 10 22 5 -7 -12
8 -13 19 -2 10 9 66 9 66 -1 0 -15 164 4 177 21 7 9 16 12 20 8 4 -4 1 -11 -7
-16 -8 -5 -11 -12 -7 -16 3 -4 13 -1 22 6 8 7 21 10 30 7 8 -4 17 -2 20 4 4 5
11 6 17 3 6 -4 14 0 19 7 7 11 9 11 9 -2 0 -17 5 -17 215 -23 78 -2 120 -7
123 -15 2 -6 8 -11 13 -11 4 0 6 7 3 15 -5 12 2 15 29 15 43 0 61 -19 20 -21
-26 -2 -26 -2 -4 -6 17 -4 30 2 42 18 15 20 21 21 41 12 18 -8 28 -8 41 2 9 6
14 15 10 18 -3 4 -1 7 5 7 7 0 12 -9 12 -19 0 -11 5 -23 10 -26 6 -3 10 1 10
11 0 13 3 14 14 5 11 -9 15 -9 18 0 3 9 10 8 26 -2 18 -11 26 -11 42 -2 17 11
18 10 13 -5 -6 -15 -5 -15 10 -3 9 7 14 17 11 22 -3 5 0 9 5 9 6 0 11 -4 11
-9 0 -5 8 -12 18 -16 14 -5 15 -4 5 6 -7 7 -13 17 -13 23 0 6 5 5 12 -2 15
-15 45 -16 50 -1 2 6 40 10 100 10 79 -1 104 -5 139 -23 41 -21 43 -21 73 -4
28 16 31 16 42 1 7 -9 15 -12 18 -6 3 5 0 11 -6 14 -7 2 -11 7 -8 10 3 4 19 0
34 -8 26 -14 28 -14 21 3 -5 14 -4 15 6 5 18 -18 46 -16 57 3 7 13 10 13 20 1
10 -11 23 -12 60 -5 26 4 74 6 107 2 42 -4 56 -2 45 5 -24 17 -5 22 24 7 16
-8 23 -17 17 -21 -19 -11 -12 -25 14 -25 14 0 25 5 25 10 0 6 7 10 15 10 8 0
15 5 15 10 0 6 12 10 26 10 19 0 25 -4 20 -15 -4 -10 1 -15 15 -15 13 0 19 5
16 13 -3 9 4 13 24 13 19 0 28 -4 25 -11 -3 -8 11 -12 40 -13 33 0 44 4 44 15
0 12 3 13 14 4 11 -9 15 -9 19 1 4 8 6 7 6 -4 1 -22 21 -24 21 -3 0 8 5 15 10
15 6 0 10 -7 10 -16 0 -11 5 -14 16 -10 9 3 22 6 30 6 9 0 12 4 9 10 -3 6 1 7
9 4 9 -3 16 -10 16 -15 0 -5 11 -9 25 -9 14 0 25 4 25 10 0 5 6 7 14 4 7 -3
17 3 20 13 7 16 9 16 22 -7 9 -14 13 -17 10 -7 -5 15 -3 16 15 6 17 -9 20 -8
14 2 -6 9 2 11 33 5 33 -5 42 -3 42 8 0 9 7 12 21 9 15 -4 17 -8 8 -14 -8 -4
2 -6 22 -5 22 2 45 13 62 30 16 16 32 24 39 20 9 -6 9 -9 0 -12 -7 -2 -10 -8
-6 -13 3 -5 13 0 23 12 14 17 21 20 37 11 13 -7 25 -7 38 0 10 6 36 8 57 5 22
-3 42 -1 45 4 3 5 23 9 44 9 21 0 42 5 45 10 5 8 11 7 21 -1 10 -8 14 -8 14 0
0 6 9 11 19 11 10 0 22 7 25 15 4 12 14 14 39 10 29 -6 35 -4 40 14 4 16 13
21 39 21 18 0 47 9 63 20 l30 20 -35 1 c-23 0 -2 8 65 24 510 119 886 415
1116 880 110 221 148 361 169 630 8 87 10 733 8 1970 l-4 1840 -26 120 c-29
131 -36 155 -48 155 -8 0 3 -60 14 -79 4 -6 2 -11 -4 -11 -15 0 -21 26 -32
128 -1 6 -5 12 -10 12 -5 0 -6 5 -3 10 3 6 2 10 -4 10 -5 0 -44 64 -85 143
-73 137 -114 206 -191 329 -109 173 -375 389 -623 504 -64 30 -125 59 -134 64
-9 5 -74 28 -143 51 -241 78 -370 89 -1145 95 -1458 12 -2171 11 -2335 -3z
m-298 -39 c-3 -3 -12 -4 -19 -1 -8 3 -5 6 6 6 11 1 17 -2 13 -5z m-39 -9 c-11
-11 -68 -23 -68 -15 0 5 10 11 23 13 35 7 51 7 45 2z m-93 -25 c-27 -12 -43
-12 -25 0 8 5 22 9 30 9 10 0 8 -3 -5 -9z m498 -37 c-7 -2 -19 -2 -25 0 -7 3
-2 5 12 5 14 0 19 -2 13 -5z m3187 -165 c228 -47 427 -128 600 -243 111 -74
282 -244 352 -350 166 -253 251 -528 269 -870 5 -99 12 -218 15 -265 5 -66 3
-94 -10 -124 -15 -35 -19 -38 -46 -32 -33 6 -35 3 -19 -42 9 -27 13 -30 35
-22 l24 10 0 -1343 c0 -1486 -4 -1617 -57 -1807 -36 -128 -158 -398 -202 -448
-9 -9 -38 -44 -64 -77 -79 -98 -253 -240 -281 -229 -22 8 -6 28 53 65 24 16
68 51 97 79 32 31 58 48 65 44 8 -4 9 -3 5 5 -4 6 -2 18 4 26 15 18 34 20 24
3 -6 -10 -4 -10 6 -1 12 11 11 15 -4 26 -17 13 -17 16 14 50 18 20 37 34 43
30 5 -3 7 -1 4 4 -5 9 71 155 102 198 5 6 11 19 15 29 5 16 4 17 -9 6 -8 -7
-15 -16 -15 -21 0 -5 -19 -37 -41 -71 -23 -35 -39 -52 -36 -39 4 18 3 21 -6
12 -15 -15 -42 -14 -57 4 -16 19 -35 19 -54 -1 -17 -16 -36 -11 -36 10 0 14
-56 30 -71 20 -5 -3 -9 -12 -9 -20 0 -8 -7 -14 -15 -14 -8 0 -15 -7 -15 -16 0
-15 -23 -44 -34 -44 -3 0 -6 7 -6 15 0 8 -4 15 -10 15 -5 0 -10 5 -10 10 0 6
9 10 20 10 13 0 20 7 20 20 0 17 -3 18 -19 9 -23 -15 -45 -49 -31 -49 5 0 10
-7 10 -15 0 -11 -11 -15 -40 -15 -26 0 -47 -7 -59 -19 -11 -11 -22 -17 -25
-14 -2 3 -24 -2 -48 -11 -24 -9 -52 -16 -63 -15 -42 4 -55 -1 -55 -22 0 -16
-5 -20 -19 -16 -10 2 -26 0 -35 -5 -10 -6 -16 -5 -16 2 0 5 -9 1 -20 -10 -25
-25 -44 -26 -38 -2 5 17 1 17 -56 -4 -80 -29 -220 -52 -386 -65 -86 -6 -667
-9 -1615 -6 l-1480 4 -115 25 c-208 47 -321 100 -450 211 -258 222 -346 457
-320 849 3 39 8 60 12 50 5 -13 7 -11 7 9 1 31 -13 38 -72 40 -34 1 -37 3 -16
8 24 5 25 9 16 31 -8 20 -11 21 -14 8 -3 -13 -12 -15 -41 -11 -20 3 -40 11
-44 17 -5 8 -11 7 -20 -2 -9 -9 -9 -12 0 -12 7 0 12 -5 12 -11 0 -6 -7 -9 -17
-7 -23 4 -29 57 -7 73 12 8 14 14 6 19 -7 4 -12 2 -12 -4 0 -6 -5 -8 -11 -5
-6 4 -26 4 -46 0 -31 -5 -34 -9 -30 -31 2 -13 0 -27 -5 -30 -14 -9 -60 5 -53
17 4 5 3 44 -2 87 -7 70 -8 59 -13 -113 -6 -213 5 -510 20 -540 25 -52 39
-175 20 -175 -15 0 -28 39 -53 155 l-22 100 0 1810 c0 1979 -4 1848 61 2070
123 416 443 764 849 920 105 40 319 94 420 105 39 4 763 7 1610 5 l1540 -2
125 -25z m-4940 -4058 c0 -93 -1 -100 -20 -100 -19 0 -20 7 -20 100 0 93 1
100 20 100 19 0 20 -7 20 -100z m0 -280 c0 -11 -4 -20 -10 -20 -5 0 -10 9 -10
20 0 11 5 20 10 20 6 0 10 -9 10 -20z m500 -990 c6 10 14 4 29 -21 11 -19 26
-40 33 -48 36 -40 58 -77 53 -90 -3 -7 2 -22 11 -32 10 -11 12 -19 6 -19 -6 0
-1 -12 12 -26 29 -32 74 -84 128 -147 36 -41 119 -95 140 -89 4 1 33 -12 65
-30 32 -17 70 -37 86 -45 32 -17 35 -28 5 -20 -18 5 -16 1 11 -23 18 -17 38
-30 44 -29 9 0 8 2 -1 6 -6 2 -10 9 -6 14 3 5 0 9 -5 9 -6 0 -11 5 -11 10 0 6
13 4 30 -5 16 -8 31 -15 32 -14 5 4 133 -41 148 -51 15 -11 8 -10 -67 6 -23 5
-25 3 -14 -10 8 -9 23 -16 34 -16 11 0 17 -3 13 -7 -4 -4 24 -15 61 -24 43
-11 58 -18 39 -18 -44 -1 -199 55 -311 113 -127 66 -280 182 -370 282 -95 104
-101 114 -84 126 11 7 10 8 -5 6 -13 -2 -33 21 -77 92 -32 52 -58 102 -58 110
0 11 3 10 10 -4 9 -14 13 -15 19 -6z m5190 -55 c0 -8 -7 -15 -15 -15 -16 0
-20 12 -8 23 11 12 23 8 23 -8z m-610 -225 c-8 -5 -22 -10 -30 -10 -13 0 -13
1 0 10 8 5 22 10 30 10 13 0 13 -1 0 -10z m-55 -20 c-3 -5 -16 -10 -28 -10
-18 0 -19 2 -7 10 20 13 43 13 35 0z m-4220 -54 c20 -18 20 -18 -6 -2 -14 9
-28 14 -30 11 -3 -2 -6 5 -6 17 -2 17 0 18 10 7 7 -8 21 -22 32 -33z m40 -37
c11 -17 -1 -21 -15 -4 -8 9 -8 15 -2 15 6 0 14 -5 17 -11z m40 -39 c3 -6 -1
-7 -9 -4 -18 7 -21 14 -7 14 6 0 13 -4 16 -10z m4675 -95 c0 -2 -10 -10 -22
-16 -21 -11 -22 -11 -9 4 13 16 31 23 31 12z m-51 -29 c-29 -29 -184 -107
-249 -126 -29 -8 -31 -8 -18 8 23 30 42 42 60 38 9 -2 19 3 22 11 4 9 14 13
26 10 12 -3 29 4 45 19 25 23 37 28 63 25 6 -1 20 3 30 8 18 11 28 14 21 7z
m-5349 -78 c0 -6 -6 -5 -15 2 -8 7 -15 14 -15 16 0 2 7 1 15 -2 8 -4 15 -11
15 -16z m221 -65 c13 -16 12 -17 -3 -4 -10 7 -18 15 -18 17 0 8 8 3 21 -13z
m4832 0 c-7 -2 -19 -2 -25 0 -7 3 -2 5 12 5 14 0 19 -2 13 -5z m-93 -22 c-8
-5 -26 -11 -40 -15 -21 -5 -20 -3 5 9 32 15 60 20 35 6z m-1577 -48 c-13 -2
-33 -2 -45 0 -13 2 -3 4 22 4 25 0 35 -2 23 -4z m-2926 -465 c-3 -8 -6 -5 -6
6 -1 11 2 17 5 13 3 -3 4 -12 1 -19z m4400 -44 c-3 -3 -12 -4 -19 -1 -8 3 -5
6 6 6 11 1 17 -2 13 -5z m-69 -11 c-10 -2 -26 -2 -35 0 -10 3 -2 5 17 5 19 0
27 -2 18 -5z m-458 -153 c0 -5 -4 -10 -10 -10 -5 0 -10 5 -10 10 0 6 5 10 10
10 6 0 10 -4 10 -10z m-695 -20 c-3 -5 -10 -10 -16 -10 -5 0 -9 5 -9 10 0 6 7
10 16 10 8 0 12 -4 9 -10z m-1835 -10 c0 -5 -4 -10 -10 -10 -5 0 -10 5 -10 10
0 6 5 10 10 10 6 0 10 -4 10 -10z"/>
<path d="M3460 8199 c-133 -11 -282 -80 -376 -174 -116 -115 -177 -251 -190
-424 -26 -348 221 -631 598 -685 l80 -11 53 -150 c75 -211 151 -408 181 -468
34 -66 111 -147 172 -180 30 -16 76 -30 118 -35 38 -5 537 -8 1109 -8 l1040 1
55 23 c82 33 125 73 164 155 30 62 109 299 268 797 22 69 66 207 99 306 32
100 59 189 59 198 0 14 8 11 43 -12 64 -44 109 -55 199 -49 100 7 170 39 232
108 164 182 66 470 -176 519 -182 36 -362 -90 -430 -302 l-22 -68 -1288 3
c-750 2 -1293 8 -1298 13 -5 5 -27 45 -49 89 -121 240 -370 378 -641 354z
m229 -188 c142 -54 271 -199 300 -339 49 -233 -59 -452 -273 -558 -78 -38 -83
-39 -186 -39 -105 0 -109 1 -186 40 -107 53 -187 134 -239 240 -37 75 -39 86
-43 191 -3 85 0 125 13 170 62 216 238 333 479 318 48 -3 109 -13 135 -23z
m3479 -66 c73 -31 112 -86 112 -160 0 -62 -21 -99 -76 -131 -39 -23 -53 -26
-96 -21 -112 14 -194 104 -169 187 15 52 56 99 106 121 49 23 75 23 123 4z
m-2554 -393 c2 -4 8 -130 12 -280 l7 -272 -279 -2 c-414 -4 -462 -4 -470 5 -4
4 31 46 78 95 47 48 96 105 110 127 41 66 78 170 90 255 l11 80 218 0 c120 0
220 -3 223 -8z m916 -185 c0 -107 3 -234 6 -283 l7 -89 -359 3 c-197 2 -360 5
-362 6 -6 6 -11 511 -5 534 l5 22 354 0 354 0 0 -193z m1152 158 c-2 -16 -34
-124 -72 -240 -38 -115 -74 -228 -79 -250 l-10 -40 -398 0 -398 0 -7 270 c-4
149 -5 276 -3 283 4 10 106 12 487 10 l483 -3 -3 -30z m-2075 -723 c8 -5 14
-89 19 -273 l7 -266 -109 -2 c-60 -1 -181 3 -269 10 -88 6 -170 12 -181 13
-48 3 -89 65 -140 211 -15 44 -33 89 -41 100 -10 16 -83 202 -83 213 0 6 786
1 797 -6z m917 -4 c3 -7 7 -132 10 -278 l6 -265 -341 3 c-242 2 -345 -1 -355
-9 -20 -16 -22 6 -29 299 l-6 262 356 0 c276 0 356 -3 359 -12z m922 -23 c-12
-63 -154 -456 -172 -476 -10 -11 -24 -17 -31 -14 -9 3 -11 0 -7 -6 5 -9 -22
-10 -102 -5 -97 6 -350 -6 -396 -20 -16 -5 -18 16 -20 275 l-3 281 369 0 368
0 -6 -35z"/>
<path d="M3679 7760 c-14 -4 -47 -20 -73 -35 -51 -30 -80 -33 -202 -21 -80 9
-81 8 -112 -20 -56 -52 -48 -91 33 -171 45 -46 68 -77 77 -107 6 -22 15 -45
19 -50 12 -14 59 22 59 44 0 11 2 20 5 20 14 0 62 -30 78 -48 10 -11 32 -26
49 -33 29 -12 33 -11 54 14 12 14 32 52 44 84 12 32 40 89 63 127 50 84 55
133 17 170 -28 27 -72 37 -111 26z"/>
<path d="M4320 6019 c-300 -34 -524 -378 -445 -684 60 -230 241 -383 475 -402
267 -21 485 132 570 398 11 34 20 67 20 74 0 26 75 30 321 19 l135 -7 11 -61
c17 -87 75 -197 143 -270 101 -107 222 -156 390 -156 155 0 257 41 372 149
193 181 231 482 88 696 -63 95 -114 139 -217 192 l-95 48 -142 0 c-83 0 -158
-5 -182 -12 -124 -38 -284 -201 -330 -337 -9 -26 -21 -49 -28 -52 -6 -2 -115
-5 -243 -6 l-232 -3 -22 68 c-22 69 -81 163 -128 205 -122 111 -288 161 -461
141z m243 -198 c64 -31 155 -124 186 -191 23 -48 26 -68 26 -156 0 -94 -2
-104 -34 -168 -44 -85 -128 -166 -208 -197 -89 -35 -209 -33 -285 4 -66 32
-149 117 -193 198 -28 50 -30 62 -30 154 0 125 19 185 82 255 87 97 172 131
313 127 74 -3 105 -8 143 -26z m1539 2 c70 -32 140 -103 178 -180 73 -148 43
-326 -76 -453 -74 -79 -213 -129 -316 -114 -188 28 -354 238 -334 425 16 160
99 270 246 328 75 29 231 26 302 -6z"/>
<path d="M4321 5612 c-101 -51 -106 -192 -8 -263 73 -53 160 -36 217 43 35 48
40 109 13 165 -30 65 -147 94 -222 55z"/>
<path d="M5864 5621 c-35 -15 -82 -77 -89 -119 -13 -77 53 -173 129 -187 68
-13 138 22 171 86 36 68 7 172 -57 205 -36 19 -125 27 -154 15z"/>
<path d="M3655 4659 c-255 -6 -300 -10 -421 -40 -108 -27 -310 -148 -401 -241
-28 -29 -68 -80 -87 -112 -35 -58 -46 -94 -26 -81 15 9 12 -1 -14 -53 -104
-208 -112 -533 -18 -744 54 -122 179 -278 287 -357 106 -78 227 -134 375 -173
l85 -22 1515 -4 c1630 -3 1769 0 1927 42 105 29 279 113 400 192 148 98 261
247 327 432 30 84 31 92 30 247 -1 131 -5 173 -22 230 -16 55 -17 66 -5 50
l16 -20 -8 20 c-4 11 -11 35 -17 53 -13 47 -63 135 -125 223 -100 140 -280
261 -475 319 -73 22 -75 22 -1248 26 -646 2 -1285 6 -1420 10 -359 10 -380 10
-675 3z m2755 -209 c17 -10 18 -9 -40 -45 -127 -78 -271 -278 -328 -455 -24
-76 -27 -100 -27 -225 0 -116 4 -154 23 -220 60 -208 216 -392 417 -491 l90
-45 -1550 4 -1550 4 -90 27 c-138 41 -267 109 -342 180 -147 137 -225 308
-239 522 -10 158 28 305 115 436 93 140 191 217 361 282 55 21 56 21 1545 26
820 3 1515 6 1545 7 30 2 62 -1 70 -7z m609 -64 c101 -28 162 -66 261 -166 76
-75 103 -111 132 -170 47 -97 69 -200 70 -325 1 -118 -16 -185 -74 -297 -40
-78 -142 -190 -222 -244 -72 -49 -182 -95 -242 -101 -78 -8 -66 2 24 21 57 12
78 21 94 41 13 17 27 25 39 22 11 -3 19 0 19 6 0 7 22 24 49 39 27 16 59 39
72 53 13 13 28 25 32 25 12 0 30 20 45 50 7 14 24 44 37 68 31 53 24 55 -11 2
-32 -48 -43 -47 -15 1 14 24 17 39 11 49 -8 12 -10 10 -10 -10 0 -20 -2 -22
-10 -10 -8 12 -10 12 -10 -5 0 -14 -3 -16 -8 -7 -6 8 -22 11 -45 8 -24 -3 -37
0 -41 10 -3 7 -11 12 -18 9 -7 -2 -38 -6 -68 -9 l-56 -4 4 37 4 36 -25 -27
c-43 -46 -63 -41 -242 71 -66 41 -148 87 -181 102 -34 15 -73 42 -88 59 -15
19 -26 26 -26 17 0 -21 65 -76 120 -101 50 -23 147 -83 168 -103 7 -7 18 -13
23 -13 5 0 9 -4 9 -10 0 -5 -11 -10 -24 -10 -13 0 -26 -5 -28 -11 -2 -7 -17
-5 -43 7 -46 20 -41 19 -158 34 -49 5 -93 8 -98 5 -5 -4 -9 -1 -9 4 0 6 9 11
20 11 11 0 20 5 20 10 0 6 -11 10 -24 10 -14 0 -31 7 -40 15 -8 8 -22 15 -30
15 -9 0 -16 5 -16 11 0 6 -6 9 -12 6 -7 -2 -20 4 -28 13 -8 9 -26 21 -40 25
-14 4 -39 18 -57 31 -18 14 -38 23 -44 22 -7 -2 -16 11 -20 27 -5 25 -7 21 -8
-22 -2 -117 80 -375 113 -356 6 3 8 3 4 -2 -4 -4 -2 -15 5 -23 10 -12 9 -14
-3 -10 -8 2 -21 16 -30 30 -90 152 -100 180 -106 298 -2 41 -6 95 -9 120 -9
58 16 175 53 254 86 181 266 328 454 371 76 18 258 13 337 -9z m-643 -1103
c10 -11 13 -11 17 -1 3 7 6 4 6 -8 1 -25 25 -48 64 -63 16 -6 25 -16 22 -21
-8 -13 -56 20 -138 93 -31 27 -31 28 -7 22 14 -4 30 -14 36 -22z m120 -58 c51
-30 71 -45 56 -45 -12 0 -22 5 -22 11 0 5 -4 7 -10 4 -5 -3 -10 -2 -10 3 0 6
-10 12 -22 16 -22 5 -90 55 -77 56 3 0 41 -20 85 -45z m54 -81 c0 -2 -9 0 -20
6 -11 6 -20 13 -20 16 0 2 9 0 20 -6 11 -6 20 -13 20 -16z m70 -24 c24 -15 7
-19 -20 -5 -15 8 -19 14 -10 14 8 1 22 -3 30 -9z m308 3 c-10 -2 -28 -2 -40 0
-13 2 -5 4 17 4 22 1 32 -1 23 -4z"/>
<path d="M3390 4231 c-42 -22 -76 -69 -91 -125 -5 -23 -12 -47 -14 -53 -3 -8
-22 -13 -47 -13 -70 0 -116 -18 -164 -65 l-46 -43 4 -214 c3 -177 6 -218 20
-244 22 -40 62 -56 129 -53 31 2 54 -1 56 -8 2 -5 0 -35 -5 -65 -11 -69 -7
-78 32 -78 32 0 133 56 182 101 19 18 35 19 196 17 l174 -3 37 28 c63 48 66
59 68 310 l2 227 -24 26 c-37 41 -83 56 -163 53 l-71 -2 -11 44 c-18 72 -46
117 -98 157 -37 28 -116 30 -166 3z m128 -98 c17 -15 47 -91 39 -99 -1 -1 -40
-6 -86 -10 l-84 -7 6 53 c4 28 12 58 18 66 16 20 83 18 107 -3z m-237 -202 c8
-10 29 -21 46 -25 26 -4 35 -1 43 14 10 18 21 20 115 20 76 0 106 -4 112 -13
4 -8 19 -16 32 -20 17 -4 24 -1 28 12 5 21 68 34 115 24 52 -10 56 -25 50
-236 -2 -107 -9 -198 -15 -205 -11 -14 -72 -7 -94 10 -7 6 -24 8 -37 4 -13 -3
-66 -8 -118 -12 -71 -4 -99 -10 -118 -25 -43 -33 -113 -79 -123 -79 -4 0 -5
20 -1 45 10 67 -2 75 -102 75 l-84 0 0 184 c0 169 2 185 20 209 30 37 109 48
131 18z"/>
<path d="M3520 3575 c0 -11 40 -24 56 -18 16 6 16 7 -2 14 -22 9 -54 11 -54 4z"/>
<path d="M4234 4036 c-72 -32 -84 -98 -29 -153 35 -35 36 -36 100 -29 64 6
472 7 1050 2 339 -4 351 -2 380 54 22 42 19 66 -14 102 l-29 33 -714 2 c-585
2 -719 0 -744 -11z"/>
<path d="M4203 3565 c-44 -44 -46 -94 -4 -136 l29 -29 715 0 c463 0 724 4 744
10 65 23 83 109 32 159 l-31 31 -726 -1 -726 -1 -33 -33z"/>
<path d="M6548 3543 c7 -3 16 -2 19 1 4 3 -2 6 -13 5 -11 0 -14 -3 -6 -6z"/>
<path d="M2360 4120 c0 -5 10 -10 23 -10 18 0 19 2 7 10 -19 13 -30 13 -30 0z"/>
<path d="M2631 4034 c0 -11 3 -14 6 -6 3 7 2 16 -1 19 -3 4 -6 -2 -5 -13z"/>
<path d="M2600 4011 c0 -10 19 -25 25 -20 1 2 -3 10 -11 17 -8 7 -14 8 -14 3z"/>
<path d="M7881 3224 c0 -11 3 -14 6 -6 3 7 2 16 -1 19 -3 4 -6 -2 -5 -13z"/>
<path d="M7479 3203 c-13 -16 -12 -17 4 -4 16 13 21 21 13 21 -2 0 -10 -8 -17
-17z"/>
<path d="M2470 2970 c0 -5 5 -10 11 -10 5 0 7 5 4 10 -3 6 -8 10 -11 10 -2 0
-4 -4 -4 -10z"/>
<path d="M2898 2563 c7 -3 16 -2 19 1 4 3 -2 6 -13 5 -11 0 -14 -3 -6 -6z"/>
<path d="M1852 6300 c0 -14 2 -19 5 -12 2 6 2 18 0 25 -3 6 -5 1 -5 -13z"/>
<path d="M1760 5060 c0 -11 5 -20 10 -20 6 0 10 9 10 20 0 11 -4 20 -10 20 -5
0 -10 -9 -10 -20z"/>
<path d="M1779 4438 c-6 -12 -5 -48 1 -48 4 0 7 11 6 25 -1 22 -3 30 -7 23z"/>
<path d="M1764 3909 c-3 -6 -2 -15 3 -20 5 -5 9 -1 9 11 0 23 -2 24 -12 9z"/>
<path d="M1765 3850 c-3 -5 -1 -10 4 -10 6 0 11 5 11 10 0 6 -2 10 -4 10 -3 0
-8 -4 -11 -10z"/>
<path d="M1862 3700 c0 -14 2 -19 5 -12 2 6 2 18 0 25 -3 6 -5 1 -5 -13z"/>
<path d="M1798 3584 c4 -20 6 -21 18 -9 18 18 18 22 -4 27 -15 4 -18 1 -14
-18z"/>
<path d="M2130 2164 c0 -8 5 -12 10 -9 6 3 10 10 10 16 0 5 -4 9 -10 9 -5 0
-10 -7 -10 -16z"/>
<path d="M2350 1899 c0 -5 5 -7 10 -4 6 3 10 8 10 11 0 2 -4 4 -10 4 -5 0 -10
-5 -10 -11z"/>
<path d="M4957 1637 c-3 -7 3 -13 13 -13 10 0 16 6 13 13 -3 7 -9 13 -13 13
-4 0 -10 -6 -13 -13z"/>
<path d="M5371 1634 c0 -11 3 -14 6 -6 3 7 2 16 -1 19 -3 4 -6 -2 -5 -13z"/>
<path d="M5500 1641 c0 -6 5 -13 10 -16 6 -3 10 1 10 9 0 9 -4 16 -10 16 -5 0
-10 -4 -10 -9z"/>
<path d="M5010 1631 c0 -6 5 -13 10 -16 6 -3 10 1 10 9 0 9 -4 16 -10 16 -5 0
-10 -4 -10 -9z"/>
<path d="M5050 1636 c0 -2 7 -6 15 -10 8 -3 15 -1 15 4 0 6 -7 10 -15 10 -8 0
-15 -2 -15 -4z"/>
<path d="M3500 1610 c0 -6 7 -10 15 -10 8 0 15 2 15 4 0 2 -7 6 -15 10 -8 3
-15 1 -15 -4z"/>
<path d="M4366 1613 c5 -5 12 -12 16 -18 4 -6 8 -2 8 8 0 9 -7 17 -17 17 -9 0
-12 -3 -7 -7z"/>
</g>
</svg>
